<?xml version="1.0" encoding="UTF-8" standalone="no"?>
<!-- Created with Inkscape (http://www.inkscape.org/) -->

<svg
   xmlns:dc="http://purl.org/dc/elements/1.1/"
   xmlns:cc="http://creativecommons.org/ns#"
   xmlns:rdf="http://www.w3.org/1999/02/22-rdf-syntax-ns#"
   xmlns:svg="http://www.w3.org/2000/svg"
   xmlns="http://www.w3.org/2000/svg"
   xmlns:sodipodi="http://sodipodi.sourceforge.net/DTD/sodipodi-0.dtd"
   xmlns:inkscape="http://www.inkscape.org/namespaces/inkscape"
   width="210mm"
   height="297mm"
   viewBox="0 0 210 297"
   version="1.1"
   id="svg825"
   inkscape:version="0.92.3 (2405546, 2018-03-11)"
   sodipodi:docname="hack_the_planet_icon.svg">
  <defs
     id="defs819" />
  <sodipodi:namedview
     id="base"
     pagecolor="#ffffff"
     bordercolor="#666666"
     borderopacity="1.0"
     inkscape:pageopacity="0.0"
     inkscape:pageshadow="2"
     inkscape:zoom="0.35"
     inkscape:cx="-182.85714"
     inkscape:cy="560"
     inkscape:document-units="mm"
     inkscape:current-layer="layer1"
     showgrid="false"
     inkscape:window-width="1919"
     inkscape:window-height="2099"
     inkscape:window-x="1920"
     inkscape:window-y="0"
     inkscape:window-maximized="0" />
  <metadata
     id="metadata822">
    <rdf:RDF>
      <cc:Work
         rdf:about="">
        <dc:format>image/svg+xml</dc:format>
        <dc:type
           rdf:resource="http://purl.org/dc/dcmitype/StillImage" />
        <dc:title></dc:title>
      </cc:Work>
    </rdf:RDF>
  </metadata>
  <g
     inkscape:label="Layer 1"
     inkscape:groupmode="layer"
     id="layer1">
    <path
       style="fill:#000000;stroke-width:0.35277778"
       d="M 99.810913,209.44614 C 73.027449,207.30222 49.260468,196.59496 30.991313,178.44224 13.901917,161.46175 3.5211244,140.1137 0.28470683,115.29424 -0.43959007,109.73975 -0.54907997,96.112568 0.09054673,91.128968 2.9634988,68.744608 10.430996,50.894078 23.924592,34.155358 31.528643,24.722582 45.708969,12.645626 49.710069,12.194644 c 1.703634,-0.192024 1.53888,-0.26119 18.703622,7.852074 5.626806,2.659622 16.580556,7.759512 24.341667,11.333083 15.328052,7.05774 16.307932,7.661723 15.854512,9.772566 -0.13195,0.614284 -0.68591,2.466255 -1.23103,4.115491 -3.5683,10.795737 -3.62763,22.679942 -0.16493,33.038104 4.84926,14.505812 15.3553,24.748328 29.46228,28.723238 2.62822,0.74055 3.7394,0.84496 8.99583,0.84526 5.40522,3.2e-4 6.32805,-0.0918 9.34861,-0.93266 7.86173,-2.18866 14.47012,-6.36918 19.87096,-12.570519 3.45815,-3.9707 5.66119,-7.603563 8.70506,-14.354813 0.78732,-1.74625 1.69514,-3.373437 2.01739,-3.615972 1.14284,-0.860157 2.69242,-0.404061 9.38203,2.76147 3.72219,1.761342 8.752,4.084842 11.17734,5.163333 2.42535,1.078495 4.92583,2.34435 5.55662,2.813019 2.1629,1.606984 2.20488,1.856101 2.20072,13.057162 -0.005,13.76255 -0.78179,20.86449 -3.35855,30.71071 -7.45258,28.47761 -27.36171,53.13739 -53.92285,66.78977 -11.61944,5.97237 -22.5125,9.36409 -35.67177,11.10692 -3.79293,0.50234 -17.66172,0.92381 -21.166667,0.64326 z m 16.102207,-30.13553 c 16.83682,-1.68482 30.51438,-7.96992 41.58756,-19.11027 10.89365,-10.95973 18.08287,-25.84781 21.14775,-43.79462 0.98914,-5.79205 0.95956,-6.43436 -0.32694,-7.09964 -2.41809,-1.25044 -7.18614,-0.0344 -8.81069,2.2471 -0.37626,0.5284 -1.49208,3.41193 -2.4796,6.40784 -3.53454,10.72297 -8.27727,18.84136 -14.82634,25.37906 -11.95108,11.93031 -27.12882,17.16115 -47.78274,16.4678 -11.836331,-0.39735 -20.616621,-2.33881 -28.600095,-6.32396 -13.880843,-6.92895 -22.892697,-18.18022 -28.767389,-35.91599 -2.433249,-7.34601 -2.518466,-7.53693 -3.713441,-8.31991 -0.796357,-0.52179 -1.246085,-0.53196 -4.612446,-0.10426 -2.461221,0.31269 -3.792576,0.63682 -3.913851,0.95286 -0.4075,1.06193 2.076235,14.56817 3.608818,19.62431 6.252397,20.62724 19.985197,36.25585 38.775267,44.12819 7.44982,3.1212 13.871279,4.60608 24.199427,5.59583 2.91183,0.27904 11.14521,0.20283 14.51471,-0.13434 z M 72.632367,91.294354 c 3.453902,-0.899629 6.125083,-2.536518 9.18688,-5.629684 3.234933,-3.268077 4.747073,-5.641383 6.402603,-10.048896 3.498691,-9.314565 2.778633,-20.416911 -1.876203,-28.928504 -1.520289,-2.779921 -2.056017,-3.488708 -4.6309,-6.126833 -3.857981,-3.952741 -8.521598,-5.989221 -13.65341,-5.962085 -4.720767,0.02498 -8.678736,1.697997 -12.595279,5.324027 -8.532255,7.899361 -11.50444,20.674523 -7.80458,33.545955 2.54418,8.850951 8.875085,15.884588 16.02934,17.808607 2.518703,0.677365 6.37896,0.684882 8.941549,0.01743 z M 202.11647,62.866142 c -2.52236,-1.170856 -5.37986,-2.497226 -6.35,-2.947487 -10.73171,-4.980816 -10.47945,-4.813219 -12.53753,-8.329609 -3.53,-6.031265 -9.16157,-12.034879 -14.87206,-15.854563 -8.67124,-5.8001 -17.2211,-8.187023 -31.5043,-8.795279 C 125.61361,26.460591 121.6724,25.487411 111.80536,20.754463 106.31487,18.12083 89.559139,10.277227 77.457337,4.6756562 l -7.889685,-3.6519054 4.361907,-1.1695345 c 12.581918,-3.37352 22.972954,-4.811276 34.700801,-4.8013795 17.11183,0.014439 30.71611,3.198521 45.68472,10.6925076 22.36678,11.1978576 38.89036,28.0885306 48.67175,49.7530686 1.26498,2.801765 3.94156,9.558627 3.76749,9.51078 -0.0285,-0.0078 -2.11549,-0.972192 -4.63785,-2.143051 z"
       id="path1435"
       inkscape:connector-curvature="0"
       sodipodi:nodetypes="cssssssscssscccccssccsssccsaccssscscccssscccssscsssccsccsssscsssscs" />
  </g>
</svg>
